<?xml version="1.0" standalone="no"?>
<!DOCTYPE svg PUBLIC "-//W3C//DTD SVG 20010904//EN"
 "http://www.w3.org/TR/2001/REC-SVG-20010904/DTD/svg10.dtd">
<svg version="1.0" xmlns="http://www.w3.org/2000/svg"
 width="20.000000pt" height="27.000000pt" viewBox="0 0 500.000000 534.000000"
 preserveAspectRatio="xMidYMid meet">

<g transform="translate(0.000000,534.000000) scale(0.100000,-0.100000)"
fill="#FFFFFF" stroke="none">
<path d="M2320 5225 c-425 -39 -826 -194 -1175 -454 -132 -99 -315 -275 -407
-391 -23 -30 -48 -60 -54 -67 -17 -18 -144 -211 -172 -263 -205 -369 -302
-742 -302 -1155 0 -200 14 -325 62 -530 51 -220 82 -304 195 -532 l76 -151
-81 -244 c-45 -134 -139 -414 -209 -623 l-128 -380 80 26 c44 14 174 56 290
93 116 37 228 73 250 81 22 7 108 35 190 61 83 26 223 71 313 100 l163 53 107
-52 c94 -47 191 -85 327 -132 84 -29 262 -70 341 -80 27 -3 82 -11 122 -16 99
-14 371 -14 495 1 249 29 475 91 707 194 653 292 1149 891 1313 1586 50 210
61 310 60 550 -1 288 -29 476 -109 716 -121 368 -308 671 -578 939 -303 301
-636 493 -1051 606 -122 33 -215 49 -380 64 -177 17 -263 17 -445 0z m515
-389 c427 -69 776 -243 1078 -539 346 -337 541 -752 588 -1250 22 -240 -13
-526 -95 -772 -168 -500 -543 -923 -1022 -1151 -126 -61 -337 -129 -479 -156
-104 -20 -152 -23 -360 -23 -266 1 -324 8 -540 70 -171 49 -327 117 -472 205
l-62 38 -193 -63 c-106 -34 -240 -77 -298 -95 -58 -18 -138 -43 -179 -56 -41
-13 -76 -22 -79 -20 -2 2 51 167 117 365 l121 360 -59 90 c-228 347 -335 775
-303 1204 13 178 38 307 93 470 234 706 868 1233 1599 1326 47 6 99 13 115 15
59 8 341 -4 430 -18z"/>
<path d="M1691 4025 c-102 -46 -223 -198 -274 -345 -29 -81 -40 -212 -28 -303
12 -80 33 -172 50 -212 76 -181 224 -421 380 -615 87 -109 290 -319 358 -370
26 -19 51 -40 57 -46 56 -55 305 -197 444 -253 28 -12 76 -31 105 -43 116 -47
282 -98 340 -104 85 -8 214 10 295 42 129 51 243 140 284 219 30 57 58 171 58
237 l0 56 -50 31 c-28 17 -52 31 -55 31 -2 0 -28 14 -57 31 -140 84 -379 199
-411 199 -39 0 -51 -8 -103 -75 -21 -27 -64 -76 -94 -108 -30 -32 -59 -65 -63
-73 -15 -26 -66 -46 -100 -38 -40 9 -194 88 -289 149 -87 57 -251 197 -302
260 -20 24 -43 50 -50 57 -22 23 -111 151 -160 232 -69 113 -67 125 31 234 77
84 133 169 133 200 0 12 -105 306 -165 462 -7 19 -18 49 -25 66 -6 18 -24 43
-38 57 -24 23 -38 26 -132 31 -83 5 -112 3 -139 -9z"/>
</g>
</svg>
